<svg version="1.1" xmlns="http://www.w3.org/2000/svg" viewBox="0 0 812.5 932.5" width="812.5" height="932.5">
  <!-- svg-source:excalidraw -->
  
  <defs>
    <style>
      @font-face {
        font-family: "Virgil";
        src: url("https://excalidraw.com/Virgil.woff2");
      }
      @font-face {
        font-family: "Cascadia";
        src: url("https://excalidraw.com/Cascadia.woff2");
      }
    </style>
  </defs>
  <rect x="0" y="0" width="812.5" height="932.5" fill="#ffffff"></rect><g stroke-linecap="round" transform="translate(10 10) rotate(0 396.25 456.25)"><path d="M0.17 -0.09 C298.41 2.11, 596.62 1.99, 792.98 0.47 M0.04 -0.24 C181.97 1.76, 363.33 1.79, 792.68 -0.22 M791.8 0.78 C792.44 245.28, 792.45 490.39, 792.11 912.34 M792.22 -0.09 C791.41 347.98, 791.8 695.89, 792.87 912.79 M793.3 912.33 C627.06 915.23, 462.01 916.01, 0.05 913.12 M792.87 912.34 C549.91 913.84, 308.07 913.86, -0.27 912.42 M0.7 911.8 C0.26 703.49, 0.3 492.46, -0.52 0.55 M0.34 912.68 C-0.52 556.52, -0.69 200.57, -0.3 -0.38" stroke="#000000" stroke-width="1" fill="none"></path></g><g transform="translate(311.25 68.5) rotate(0 63.5 23)"><text x="63.5" y="32" font-family="Virgil, Segoe UI Emoji" font-size="36px" fill="#000000" text-anchor="middle" style="white-space: pre;" direction="ltr">Sign Up</text></g><g stroke-linecap="round" transform="translate(86.25 207.5) rotate(0 115.625 21.25)"><path d="M1.1 -1.51 C73.74 -0.67, 150.38 1.28, 232.71 -1.22 M0.42 -0.53 C52.54 1.53, 105.02 0.67, 231.82 0.41 M232.97 -0.92 C233.12 9.97, 233.19 19.81, 231.91 42.32 M230.26 0.66 C231.24 12.98, 230.48 25.89, 232.16 42.1 M229.62 41.25 C154.17 44.93, 73.11 45.57, 0.63 41.83 M231.21 42.42 C142.58 43.11, 56.01 42.25, 0.32 42.04 M0.09 44.3 C0.62 28.07, -0.61 12.04, 0.43 -1.61 M-0.19 42.84 C-1.28 27.71, 0.01 12.79, 0.35 0.93" stroke="#000000" stroke-width="1" fill="none"></path></g><g transform="translate(88.25 179) rotate(0 33 13)"><text x="0" y="18" font-family="Virgil, Segoe UI Emoji" font-size="20px" fill="#000000" text-anchor="start" style="white-space: pre;" direction="ltr">EMAIL</text></g><g stroke-linecap="round" transform="translate(423.75 207.5) rotate(0 115.625 21.25)"><path d="M-1.22 -0.05 C70.29 -0.48, 140.86 0.14, 230.54 -0.22 M-0.28 -0.72 C86.49 0.19, 174.43 -0.75, 230.63 -0.19 M231.87 0.42 C229.8 10.39, 231.67 21.15, 230.45 42.23 M232.23 -0.02 C230.47 9.87, 232.25 17.02, 231.79 42.06 M232.16 41.65 C173.09 40.04, 114 40.93, -1.33 40.95 M230.77 42.04 C148.86 44.03, 66.36 44.39, -0.83 42.77 M-0.18 42.65 C0.75 30.85, -1.04 17.9, -0.77 -1.81 M-1 42.15 C0.74 30.37, 0.12 16.91, 0.61 0.64" stroke="#000000" stroke-width="1" fill="none"></path></g><g transform="translate(425.75 179) rotate(0 46.5 13)"><text x="0" y="18" font-family="Virgil, Segoe UI Emoji" font-size="20px" fill="#000000" text-anchor="start" style="white-space: pre;" direction="ltr">Password</text></g><g stroke-linecap="round" transform="translate(88.125 303) rotate(0 115.625 21.25)"><path d="M-1.57 1.5 C67.42 0.1, 138.28 0.47, 231.72 1.39 M-0.61 0.19 C54.01 -0.2, 107.9 -0.11, 230.99 0.05 M230.22 -0.98 C231.95 11.71, 229.4 26.72, 232.48 42.66 M231.95 -0.93 C232.07 14.79, 231.68 29.07, 231.48 43.16 M230.53 41.29 C146.4 40.02, 59.83 41.8, 1.58 43.7 M230.87 42.68 C178.25 42.87, 126.26 42, 0.58 42.96 M0.2 42.69 C-0.48 32.6, -0.21 19.29, -0.8 -0.97 M0.81 41.79 C-0.56 30.32, 0.46 17.65, -0.44 0.23" stroke="#000000" stroke-width="1" fill="none"></path></g><g transform="translate(90.125 274.5) rotate(0 53.5 13)"><text x="0" y="18" font-family="Virgil, Segoe UI Emoji" font-size="20px" fill="#000000" text-anchor="start" style="white-space: pre;" direction="ltr">First Name</text></g><g stroke-linecap="round" transform="translate(89.375 436.75) rotate(0 115.625 21.25)"><path d="M0.28 0.79 C47.37 -0.08, 94.99 0.22, 230.46 -1.23 M0.05 0.53 C48.2 -0.64, 94.99 -1.09, 231.74 -0.37 M232.88 0.05 C231.22 15.73, 229.6 32.3, 231.92 44 M232.14 -0.86 C230.14 13.79, 230.2 27.2, 232.05 42.55 M232.29 43.8 C176.77 40.39, 124.28 40.73, -0.72 43.57 M231.4 42.01 C157.12 41.13, 81.17 41.26, 0.82 42.76 M-1.38 41.64 C-1.25 32.02, -0.44 25.75, 1.27 1.43 M-0.1 42.61 C0.32 28.34, 0.98 13.08, 0.59 -0.18" stroke="#000000" stroke-width="1" fill="none"></path></g><g transform="translate(91.375 407) rotate(0 77 13)"><text x="0" y="18" font-family="Virgil, Segoe UI Emoji" font-size="20px" fill="#000000" text-anchor="start" style="white-space: pre;" direction="ltr">Preferred Name</text></g><g stroke-linecap="round" transform="translate(423.125 304.25) rotate(0 115.625 21.25)"><path d="M-0.91 1.47 C91.96 -2.94, 182.33 -2.38, 232.6 -1.64 M-0.25 -0.33 C60.67 -1.22, 120.75 -0.85, 231.31 0.63 M231.12 1.11 C230.66 17.18, 233.04 31.64, 230.91 41.07 M230.81 0.67 C230.08 9.34, 230.54 20.21, 230.91 41.75 M230.27 44.04 C156.65 45.19, 83.12 43.65, 0.95 42.9 M231.91 41.86 C184.95 43.43, 137.32 44.09, 0.07 42.19 M1.96 43.94 C-1.36 31.04, 1.85 24.21, 0.19 -1.88 M-0.74 43.38 C-0.69 27.57, 0.01 14.82, 0.99 0.24" stroke="#000000" stroke-width="1" fill="none"></path></g><g transform="translate(425.125 275.75) rotate(0 54 13)"><text x="0" y="18" font-family="Virgil, Segoe UI Emoji" font-size="20px" fill="#000000" text-anchor="start" style="white-space: pre;" direction="ltr">Last Name</text></g><g stroke-linecap="round" transform="translate(89 372.25) rotate(0 13.5 13.5)"><path d="M1.03 -1.76 L27.02 2 L25.34 28.24 L1.77 25.4" stroke="none" stroke-width="0" fill="#fff"></path><path d="M0.73 0.71 C9.58 1.81, 14.1 0.82, 27.04 0.79 M-0.12 0.81 C9.29 0.59, 18.83 -0.79, 27.68 -0.27 M26.73 1.1 C27.2 10.92, 26.69 20.29, 25.88 26.05 M27.06 -0.65 C27.45 6.63, 27.59 12.28, 26.55 27.38 M25.86 27.98 C17.75 26.48, 10.18 28.85, 0.85 26.95 M26.84 26.88 C19.31 27.46, 11.44 26.13, 0.77 26.69 M-0.99 28.89 C1.48 16.13, -0.58 7.26, -1.53 -1.71 M0.82 27.84 C0.54 17.6, 1.09 6.05, -0.03 0.68" stroke="#000000" stroke-width="1" fill="none"></path></g><g transform="translate(124 375.75) rotate(0 147 10.5)"><text x="0" y="15" font-family="Virgil, Segoe UI Emoji" font-size="16px" fill="#000000" text-anchor="start" style="white-space: pre;" direction="ltr">Do you have a preferred first name?</text></g><g stroke-linecap="round"><g transform="translate(91.00000000000045 379.75) rotate(0 14.70261206664054 3.7546541169285774)"><path d="M1.82 1.79 C2.19 6.44, 6.39 11.87, 10.19 16.99 M-0.51 0.55 C1.93 4.07, 6.07 9.39, 9.39 15.64 M9.3 17.67 C15.54 9.49, 21.34 -1.45, 27.78 -10.17 M9.61 16.85 C16.93 8.09, 22.94 -1.06, 29.91 -9.08" stroke="#000000" stroke-width="1" fill="none"></path></g></g><g stroke-linecap="round" transform="translate(91.875 536.75) rotate(0 115.625 21.25)"><path d="M-0.85 0.55 C83.42 -0.84, 165.18 0.44, 231.69 -1.08 M0.58 -0.75 C73.16 2.61, 145.79 2.55, 230.97 0 M232.87 -0.64 C232.32 12.67, 231.72 29.18, 230.75 42.64 M231.86 0.05 C230.59 13.5, 231.74 27.28, 231.62 43.39 M232.46 42.05 C174.32 45.74, 119.24 43.33, -0.82 41.87 M231.15 41.94 C176.48 41.37, 121.16 41.89, -0.63 42.5 M1.92 43.95 C-0.11 26.18, 1.44 11.25, 1.23 -1.2 M-0.93 42.24 C-1.12 32.61, -0.92 23.45, -0.6 0.13" stroke="#000000" stroke-width="1" fill="none"></path></g><g transform="translate(93.875 508.25) rotate(0 66 13)"><text x="0" y="18" font-family="Virgil, Segoe UI Emoji" font-size="20px" fill="#000000" text-anchor="start" style="white-space: pre;" direction="ltr">Phone Number</text></g><g stroke-linecap="round" transform="translate(92.5 594) rotate(0 13.5 13.5)"><path d="M1.1 -0.94 L28.98 0.29 L28.75 26.61 L0.37 27.26" stroke="none" stroke-width="0" fill="#fff"></path><path d="M1.87 -0.33 C11.21 0.52, 19.88 1.03, 28.94 -1.54 M-0.72 0.92 C6.55 0.02, 14.27 -0.85, 27.26 0.78 M26.86 -0.42 C26.97 6.93, 26.35 13.56, 26.49 25.86 M26.56 0.91 C27.87 8.61, 26.96 16.42, 26.01 27.16 M25.22 26.33 C19.36 26.95, 13.59 27.26, -0.65 25.31 M26.32 27.94 C20.15 26.47, 11.01 26.33, -0.97 26.75 M-0.73 25.03 C-1.79 20.81, 0.8 10.34, 1.48 -0.81 M-0.02 27.16 C0.54 20.53, -0.73 14.25, 0.74 0.25" stroke="#000000" stroke-width="1" fill="none"></path></g><g transform="translate(127.5 597.5) rotate(0 235 10.5)"><text x="0" y="15" font-family="Virgil, Segoe UI Emoji" font-size="16px" fill="#000000" text-anchor="start" style="white-space: pre;" direction="ltr">Sign me up to receive text with help setting up my account</text></g><g stroke-linecap="round" transform="translate(267.5 817) rotate(0 113.125 18.625)"><path d="M1.92 -0.93 L224.52 0.53 L227.34 37.8 L-1.73 36.04" stroke="none" stroke-width="0" fill="#fff"></path><path d="M1.37 0.23 C47.39 -2.36, 94.24 0.17, 227.3 -0.45 M-0.31 -0.6 C56.55 1.15, 114 1.07, 226.13 -0.82 M224.7 -1.69 C225.93 11.96, 226.7 27.13, 224.39 36.66 M226.78 -0.16 C225.62 11.66, 226.86 24.29, 227.09 37.89 M226.12 36.81 C161.15 39.54, 95.38 39.7, 0.88 38.38 M225.7 37.55 C140.24 38.44, 55.19 38.54, -0.25 37.35 M-1 38.34 C-0.49 22, 0.56 7.99, -1.18 -0.11 M0.14 38.06 C0.71 25.11, -0.12 12.3, -0.26 0.57" stroke="#000000" stroke-width="1" fill="none"></path></g><g transform="translate(278.75 823.75) rotate(0 94 13)"><text x="94" y="18" font-family="Virgil, Segoe UI Emoji" font-size="20px" fill="#000000" text-anchor="middle" style="white-space: pre;" direction="ltr">Create my account</text></g><g stroke-linecap="round" transform="translate(97.5 669) rotate(0 13.5 13.5)"><path d="M1.56 1.87 L26.19 -1.37 L26.22 28.84 L-1.64 27.45" stroke="none" stroke-width="0" fill="#fff"></path><path d="M-1.55 1.49 C7.42 0.05, 17.65 0.8, 27.93 1.41 M0.03 -0.29 C5.43 -0.27, 13.44 -0.61, 26.12 -0.26 M26.39 0.52 C27.62 8.02, 26.51 19.55, 25.75 25.9 M26.37 0.18 C26.69 10.93, 27.4 20.34, 26.77 26.96 M26.63 26.17 C14.58 27.85, 5.82 27.05, -1.13 26.89 M26.78 27.72 C19.41 27.27, 13.31 26.37, 0.06 26.2 M-0.1 27.8 C1.35 20.28, -1.77 14.39, -1.96 0.85 M-0.56 26.33 C-0.9 20.12, 0.74 12.62, -0.65 0.73" stroke="#000000" stroke-width="1" fill="none"></path></g><g transform="translate(132.5 672.5) rotate(0 263.5 10.5)"><text x="0" y="15" font-family="Virgil, Segoe UI Emoji" font-size="16px" fill="#000000" text-anchor="start" style="white-space: pre;" direction="ltr">By checking this box you agree to all our legal jargon listed below</text></g><g transform="translate(135 698.75) rotate(0 293.5 31.5)"><text x="0" y="15" font-family="Virgil, Segoe UI Emoji" font-size="16px" fill="#000000" text-anchor="start" style="white-space: pre;" direction="ltr">ennui taiyaki lumbersexual narwhal quis dolore master cleanse. </text><text x="0" y="36" font-family="Virgil, Segoe UI Emoji" font-size="16px" fill="#000000" text-anchor="start" style="white-space: pre;" direction="ltr">mustache cold-pressed eiusmod forage humblebrag thundercats. Hashtag </text><text x="0" y="57" font-family="Virgil, Segoe UI Emoji" font-size="16px" fill="#000000" text-anchor="start" style="white-space: pre;" direction="ltr">YOLO minim dreamcatcher, occupy keytar kogi. Hexagon minim lyft literally. </text></g></svg>